<svg xmlns="http://www.w3.org/2000/svg" viewBox="0 0 100 100">
  <circle cx="50" cy="50" r="48" fill="#FDF2F3"/>
  <circle cx="50" cy="50" r="46" fill="none" stroke="#8B1424" stroke-opacity="0.4" stroke-width="1.5"/>
  <g fill="#8B1424">
    <rect x="22" y="42" width="16" height="38" rx="1"/>
    <rect x="26" y="48" width="3" height="3" fill="#FDF2F3"/>
    <rect x="32" y="48" width="3" height="3" fill="#FDF2F3"/>
    <rect x="26" y="55" width="3" height="3" fill="#FDF2F3"/>
    <rect x="32" y="55" width="3" height="3" fill="#FDF2F3"/>
    <rect x="26" y="62" width="3" height="3" fill="#FDF2F3"/>
    <rect x="32" y="62" width="3" height="3" fill="#FDF2F3"/>
    <rect x="26" y="69" width="3" height="3" fill="#FDF2F3"/>
    <rect x="32" y="69" width="3" height="3" fill="#FDF2F3"/>
    <rect x="42" y="22" width="18" height="58" rx="1"/>
    <polygon points="42,22 51,15 60,22"/>
    <rect x="46" y="30" width="3" height="3" fill="#FDF2F3"/>
    <rect x="53" y="30" width="3" height="3" fill="#FDF2F3"/>
    <rect x="46" y="37" width="3" height="3" fill="#FDF2F3"/>
    <rect x="53" y="37" width="3" height="3" fill="#FDF2F3"/>
    <rect x="46" y="44" width="3" height="3" fill="#FDF2F3"/>
    <rect x="53" y="44" width="3" height="3" fill="#FDF2F3"/>
    <rect x="46" y="51" width="3" height="3" fill="#FDF2F3"/>
    <rect x="53" y="51" width="3" height="3" fill="#FDF2F3"/>
    <rect x="46" y="58" width="3" height="3" fill="#FDF2F3"/>
    <rect x="53" y="58" width="3" height="3" fill="#FDF2F3"/>
    <rect x="46" y="65" width="3" height="3" fill="#FDF2F3"/>
    <rect x="53" y="65" width="3" height="3" fill="#FDF2F3"/>
    <rect x="46" y="72" width="3" height="3" fill="#FDF2F3"/>
    <rect x="53" y="72" width="3" height="3" fill="#FDF2F3"/>
    <rect x="64" y="52" width="14" height="28" rx="1"/>
    <rect x="67" y="58" width="3" height="3" fill="#FDF2F3"/>
    <rect x="73" y="58" width="3" height="3" fill="#FDF2F3"/>
    <rect x="67" y="65" width="3" height="3" fill="#FDF2F3"/>
    <rect x="73" y="65" width="3" height="3" fill="#FDF2F3"/>
    <rect x="67" y="72" width="3" height="3" fill="#FDF2F3"/>
    <rect x="73" y="72" width="3" height="3" fill="#FDF2F3"/>
    <path d="M 10 78 Q 50 88 90 78 L 90 86 Q 50 96 10 86 Z"/>
  </g>
</svg>
